<svg width="316" height="285" viewBox="0 0 316 285" fill="none" xmlns="http://www.w3.org/2000/svg">
<rect x="1.35193" y="1.14014" width="313.486" height="283.613" fill="#F2F2F2"/>
<path d="M25.2366 155.892C25.2366 82.5159 84.7193 23.0331 158.095 23.0331C231.471 23.0331 290.953 82.5158 290.953 155.891V260.87H25.2366V155.892Z" fill="#73212F"/>
<path d="M132.471 128.516C129.978 136.766 126.744 153.585 133.751 154.853C136.671 155.382 139.037 154.164 139.121 149.476C139.206 144.787 139.734 135.052 141.166 133.618" stroke="#F2F2F2"/>
<path d="M111.972 111.629C111.439 119.749 111.356 132.155 114.41 137.791C117.752 143.959 121.667 142.788 121.731 139.271L122.069 118.552" stroke="#F2F2F2"/>
<path d="M117.316 91.9055C121.877 98.8461 129.797 107.315 132.181 110.327C134.565 113.339 145.539 123.033 148.375 126.497C151.211 129.96 153.039 136.207 153.378 138.651C153.717 141.095 154.172 153.047 158.366 154.371C160.689 155.497 165.015 155.998 163.736 148.993L160.665 124.448" stroke="#F2F2F2"/>
<path d="M32.4703 21.5109L88.2226 48.5383C92.8686 50.7906 102.851 55.9846 105.613 58.7425C109.066 62.1898 145.319 98.3868 147.046 100.11C155.741 105.213 168.234 114.107 169.615 115.486C170.996 116.865 185.152 130.999 192.058 137.893C189.074 140.881 178.965 142.719 162.392 126.172C155.486 119.277 139.848 107.243 132.751 110.897L146.6 124.724C150.053 128.171 149.925 135.204 141.166 133.618L132.471 128.516C130.169 126.218 125.22 121.277 123.839 119.898C122.458 118.519 111.668 111.325 111.668 111.325C111.668 111.325 90.4768 98.7584 89.2486 88.9405C87.7132 76.6682 75.5015 71.635 70.2588 69.9802C67.6062 69.143 22.4142 59.2011 0.250021 53.7771" stroke="#F2F2F2"/>
<path d="M183.952 157.381C186.427 149.188 189.639 132.487 182.68 131.228C179.781 130.703 177.432 131.912 177.348 136.568C177.263 141.223 176.739 150.891 175.317 152.315" stroke="#F2F2F2"/>
<path d="M204.307 174.15C204.837 166.087 204.919 153.768 201.887 148.171C198.568 142.045 194.68 143.209 194.617 146.701L194.281 167.276" stroke="#F2F2F2"/>
<path d="M199.001 193.736C194.472 186.844 186.607 178.434 184.24 175.443C181.873 172.452 170.975 162.825 168.159 159.386C165.343 155.947 163.527 149.743 163.191 147.316C162.854 144.889 162.402 133.021 158.238 131.706C155.931 130.588 151.635 130.091 152.905 137.047L155.954 161.42" stroke="#F2F2F2"/>
<path d="M283.255 263.639L227.891 236.801C223.278 234.564 213.365 229.406 210.622 226.668C207.193 223.244 171.193 187.3 169.479 185.588C160.844 180.522 148.438 171.69 147.067 170.32C145.695 168.951 131.638 154.916 124.781 148.069C127.743 145.102 137.783 143.277 154.24 159.708C161.097 166.555 176.627 178.506 183.674 174.877L169.922 161.146C166.493 157.723 166.619 150.74 175.317 152.315L183.952 157.381C186.238 159.663 191.152 164.57 192.523 165.939C193.895 167.309 204.609 174.452 204.609 174.452C204.609 174.452 225.653 186.931 226.873 196.68C228.397 208.867 240.524 213.865 245.73 215.508C248.364 216.34 293.24 226.212 315.25 231.598" stroke="#F2F2F2"/>
</svg>
