<svg width="32" height="32" viewBox="0 0 32 32" fill="none" xmlns="http://www.w3.org/2000/svg">
<path d="M9.34996 0.166748H22.65C27.7166 0.166748 31.8333 4.28341 31.8333 9.35008V22.6501C31.8333 25.0857 30.8658 27.4215 29.1436 29.1437C27.4214 30.8659 25.0855 31.8334 22.65 31.8334H9.34996C4.28329 31.8334 0.166626 27.7167 0.166626 22.6501V9.35008C0.166626 6.91451 1.13415 4.57869 2.85636 2.85648C4.57857 1.13428 6.91439 0.166748 9.34996 0.166748ZM9.03329 3.33341C7.52156 3.33341 6.07174 3.93395 5.00278 5.00291C3.93383 6.07186 3.33329 7.52168 3.33329 9.03341V22.9667C3.33329 26.1176 5.88246 28.6667 9.03329 28.6667H22.9666C24.4784 28.6667 25.9282 28.0662 26.9971 26.9973C28.0661 25.9283 28.6666 24.4785 28.6666 22.9667V9.03341C28.6666 5.88258 26.1175 3.33341 22.9666 3.33341H9.03329ZM24.3125 5.70841C24.8374 5.70841 25.3408 5.91693 25.7119 6.2881C26.0831 6.65926 26.2916 7.16267 26.2916 7.68758C26.2916 8.21249 26.0831 8.7159 25.7119 9.08706C25.3408 9.45823 24.8374 9.66675 24.3125 9.66675C23.7876 9.66675 23.2841 9.45823 22.913 9.08706C22.5418 8.7159 22.3333 8.21249 22.3333 7.68758C22.3333 7.16267 22.5418 6.65926 22.913 6.2881C23.2841 5.91693 23.7876 5.70841 24.3125 5.70841ZM16 8.08341C18.0996 8.08341 20.1132 8.91749 21.5979 10.4022C23.0826 11.8868 23.9166 13.9004 23.9166 16.0001C23.9166 18.0997 23.0826 20.1133 21.5979 21.598C20.1132 23.0827 18.0996 23.9167 16 23.9167C13.9003 23.9167 11.8867 23.0827 10.402 21.598C8.91737 20.1133 8.08329 18.0997 8.08329 16.0001C8.08329 13.9004 8.91737 11.8868 10.402 10.4022C11.8867 8.91749 13.9003 8.08341 16 8.08341ZM16 11.2501C14.7402 11.2501 13.532 11.7505 12.6412 12.6413C11.7504 13.5321 11.25 14.7403 11.25 16.0001C11.25 17.2599 11.7504 18.468 12.6412 19.3588C13.532 20.2496 14.7402 20.7501 16 20.7501C17.2597 20.7501 18.4679 20.2496 19.3587 19.3588C20.2495 18.468 20.75 17.2599 20.75 16.0001C20.75 14.7403 20.2495 13.5321 19.3587 12.6413C18.4679 11.7505 17.2597 11.2501 16 11.2501Z" fill="#F2F2F2"/>
</svg>
