<svg width="64" height="65" viewBox="0 0 64 65" fill="none" xmlns="http://www.w3.org/2000/svg">
<path d="M10.6667 48.3772C9.9111 48.3772 9.27822 48.1212 8.76799 47.6092C8.25777 47.0972 8.00177 46.4643 7.99999 45.7105C7.99822 44.9568 8.25422 44.3239 8.76799 43.8119C9.28177 43.2999 9.91466 43.0439 10.6667 43.0439H53.3333C54.0889 43.0439 54.7227 43.2999 55.2347 43.8119C55.7467 44.3239 56.0018 44.9568 56 45.7105C55.9982 46.4643 55.7422 47.0981 55.232 47.6119C54.7218 48.1256 54.0889 48.3808 53.3333 48.3772H10.6667ZM10.6667 35.0439C9.9111 35.0439 9.27822 34.7879 8.76799 34.2759C8.25777 33.7639 8.00177 33.131 7.99999 32.3772C7.99822 31.6234 8.25422 30.9905 8.76799 30.4785C9.28177 29.9665 9.91466 29.7105 10.6667 29.7105H53.3333C54.0889 29.7105 54.7227 29.9665 55.2347 30.4785C55.7467 30.9905 56.0018 31.6234 56 32.3772C55.9982 33.131 55.7422 33.7648 55.232 34.2785C54.7218 34.7923 54.0889 35.0474 53.3333 35.0439H10.6667ZM10.6667 21.7105C9.9111 21.7105 9.27822 21.4545 8.76799 20.9425C8.25777 20.4305 8.00177 19.7976 7.99999 19.0439C7.99822 18.2901 8.25422 17.6572 8.76799 17.1452C9.28177 16.6332 9.91466 16.3772 10.6667 16.3772H53.3333C54.0889 16.3772 54.7227 16.6332 55.2347 17.1452C55.7467 17.6572 56.0018 18.2901 56 19.0439C55.9982 19.7976 55.7422 20.4314 55.232 20.9452C54.7218 21.459 54.0889 21.7141 53.3333 21.7105H10.6667Z" fill="#73212F"/>
</svg>
