<svg width="180" height="180" viewBox="0 0 180 180" fill="none" xmlns="http://www.w3.org/2000/svg">
<circle cx="90" cy="90" r="90" fill="#0D0D0D"/>
<path d="M108.452 120.122C112.421 114.767 123.401 98.003 121.217 79.1285C120.54 73.283 114.54 70.2785 111.2 69.047V67.7405C111.2 67.7405 106.611 65.8655 106.064 65.3825V61.1165C106.062 61.079 108.818 59.7455 108.818 59.7455V52.0505C108.818 52.0505 105.615 49.4645 102.419 48.6035V47.762C102.419 47.762 96.1111 47 90.0001 47C83.8891 47 77.5831 47.762 77.5831 47.762V48.6035C74.3866 49.4645 71.1826 52.0505 71.1826 52.0505V59.7455C71.1826 59.7455 73.9381 61.079 73.9396 61.082L73.9366 65.381C73.3876 65.867 68.8006 67.7405 68.8006 67.7405V69.047C65.4616 70.2785 59.4616 73.283 58.7836 79.1285C56.5996 98.003 67.5796 114.767 71.5471 120.122C70.4828 120.807 69.5134 121.629 68.6641 122.567C66.5641 124.929 65.9281 127.371 66.9541 129.105C67.8181 130.562 69.0496 131.829 70.6171 132.887C74.7106 135.655 81.0496 137 90.0001 137C98.9506 137 105.29 135.655 109.386 132.885C110.949 131.831 112.181 130.562 113.043 129.113C114.074 127.371 113.436 124.928 111.342 122.575C110.491 121.633 109.519 120.809 108.452 120.122ZM80.4751 50.1755C80.4751 50.1755 83.1181 49.8185 90.0001 49.8185C96.8821 49.8185 99.5251 50.1755 99.5251 50.1755V50.822H80.4751V50.1755ZM74.0761 53.3555L74.1406 53.3045C74.4526 53.3585 75.0586 53.459 76.0051 53.5775C78.4981 53.897 83.1766 54.338 90.0001 54.338C96.8236 54.338 101.504 53.897 103.995 53.5775C104.94 53.459 105.548 53.3585 105.858 53.3045L105.923 53.3555V57.821C105.63 57.8645 104.984 57.9575 103.995 58.07C101.423 58.3685 96.5971 58.7885 90.0001 58.7885C83.4031 58.7885 78.5776 58.367 76.0051 58.07C75.3606 57.9984 74.7175 57.9149 74.0761 57.8195V53.3555ZM71.6941 71.093V69.761C72.0031 69.89 72.6766 70.136 73.8901 70.412C76.4206 70.9895 81.2686 71.693 89.9986 71.693C98.7286 71.693 103.578 70.9895 106.107 70.412C107.322 70.136 107.994 69.89 108.303 69.761V71.093L108.366 71.1095C108.089 71.225 107.402 71.4785 106.107 71.762C103.58 72.3125 98.7301 72.9875 90.0001 72.9875C81.2701 72.9875 76.4191 72.3125 73.8916 71.7605C72.5956 71.4785 71.9101 71.225 71.6326 71.108L71.6941 71.093ZM87.5281 81.806C89.1771 81.853 90.8256 81.853 92.4736 81.806L92.3986 90.848C95.5986 90.7627 98.7914 90.5008 101.963 90.0635L101.775 94.601C98.6542 95.0317 95.5119 95.2896 92.3626 95.3735C92.3056 102.164 92.2501 108.953 92.1961 115.743C90.7331 115.781 89.2701 115.781 87.8071 115.743C87.7531 108.953 87.6976 102.164 87.6406 95.3735C84.4907 95.2897 81.3479 95.0318 78.2266 94.601C78.1666 93.09 78.1046 91.5775 78.0406 90.0635C81.2146 90.5045 84.4066 90.7595 87.6046 90.848C87.5776 87.834 87.5521 84.82 87.5281 81.806ZM90.0001 123.536C95.8951 123.536 99.8881 122.481 102.27 121.551C103.67 121.006 104.508 120.503 104.846 120.281V121.385C104.846 121.385 104.418 122.489 102.27 123.438C100.122 124.382 96.3976 125.316 90.0001 125.316C82.9516 125.316 79.1491 124.187 77.1286 123.149C75.4876 122.304 75.1546 121.385 75.1546 121.385V120.278C75.4351 120.463 76.0756 120.851 77.1271 121.304H77.1301C79.4071 122.282 83.5696 123.536 90.0001 123.536ZM110.537 127.7C109.854 128.847 108.888 129.793 107.736 130.57C102.809 133.901 94.4446 134.18 90.0001 134.18C85.5556 134.18 77.1916 133.9 72.2641 130.57C71.1106 129.791 70.1446 128.847 69.4636 127.7C69.1786 127.22 69.5326 125.997 70.6696 124.635C70.8106 125.035 71.3596 126.24 73.1716 127.515C75.6616 129.264 80.5306 131.128 90.0001 131.128C99.4696 131.128 104.339 129.264 106.829 127.515C108.641 126.24 109.19 125.033 109.331 124.635C110.469 125.997 110.822 127.218 110.537 127.7Z" fill="#F2F2F2"/>
</svg>
