<svg width="180" height="180" viewBox="0 0 180 180" fill="none" xmlns="http://www.w3.org/2000/svg">
<circle cx="90" cy="90" r="90" fill="#73212F"/>
<path d="M54 94H126V126.012C126 128.212 124.22 130 122.028 130H57.972C57.4493 129.999 56.932 129.895 56.4495 129.694C55.9671 129.493 55.5289 129.199 55.1601 128.829C54.7912 128.458 54.4989 128.019 54.2999 127.536C54.1009 127.052 53.999 126.535 54 126.012V94ZM54 53.992C54 51.788 55.78 50 57.972 50H122.028C124.22 50 126 51.784 126 53.992V86H54V53.992ZM78 62V70H102V62H78ZM78 106V114H102V106H78Z" fill="#F2F2F2"/>
</svg>
