<svg width="180" height="180" viewBox="0 0 180 180" fill="none" xmlns="http://www.w3.org/2000/svg">
<circle cx="90" cy="90" r="90" fill="#73212F"/>
<path d="M115.996 48H91.1875L106.973 69.0487L115.996 48ZM63.3794 48L72.4019 69.0487L88.1875 48H63.3794ZM89.6875 56.0006L77.6875 72H101.688L89.6875 56.0006ZM120.991 51.5738L112.236 72H133.188L120.991 51.5738ZM58.3844 51.5738L46 72H67.1388L58.3844 51.5738ZM69.19 78H46.1875L87.9625 132H88.0619L69.19 78ZM110.185 78L91.3131 132H91.4125L133.188 78H110.185ZM103.448 78H75.9269L89.6875 117L103.448 78Z" fill="#F2F2F2"/>
</svg>
