<svg width="180" height="180" viewBox="0 0 180 180" fill="none" xmlns="http://www.w3.org/2000/svg">
<circle cx="90" cy="90" r="90" fill="#0D0D0D"/>
<path d="M67.372 61.752C67.7439 62.1235 68.0389 62.5646 68.2402 63.0502C68.4415 63.5358 68.5451 64.0563 68.5451 64.582C68.5451 65.1077 68.4415 65.6282 68.2402 66.1138C68.0389 66.5994 67.7439 67.0405 67.372 67.412C61.3697 73.4153 57.9978 81.5568 57.9978 90.046C57.9978 98.5352 61.3697 106.677 67.372 112.68C67.754 113.049 68.0588 113.49 68.2684 113.978C68.478 114.466 68.5884 114.991 68.593 115.522C68.5976 116.054 68.4964 116.58 68.2953 117.072C68.0942 117.563 67.7971 118.01 67.4216 118.386C67.046 118.761 66.5994 119.058 66.1078 119.259C65.6162 119.46 65.0895 119.562 64.5584 119.557C64.0273 119.552 63.5024 119.442 63.0144 119.232C62.5264 119.023 62.085 118.718 61.716 118.336C46.088 102.712 46.088 77.376 61.716 61.752C62.4661 61.0021 63.4833 60.5809 64.544 60.5809C65.6047 60.5809 66.6219 61.0021 67.372 61.752ZM118.3 61.752C133.924 77.38 133.924 102.712 118.3 118.336C117.55 119.087 116.532 119.508 115.471 119.509C114.41 119.509 113.393 119.088 112.642 118.338C111.891 117.588 111.47 116.57 111.469 115.509C111.469 114.448 111.89 113.431 112.64 112.68C118.642 106.677 122.014 98.5352 122.014 90.046C122.014 81.5568 118.642 73.4153 112.64 67.412C111.889 66.6614 111.468 65.6435 111.468 64.582C111.468 63.5205 111.889 62.5026 112.64 61.752C113.391 61.0014 114.409 60.5798 115.47 60.5798C116.531 60.5798 117.549 61.0014 118.3 61.752ZM79.24 73.248C79.9899 73.9981 80.4111 75.0153 80.4111 76.076C80.4111 77.1367 79.9899 78.1539 79.24 78.904C77.7838 80.36 76.6287 82.0887 75.8406 83.9911C75.0525 85.8936 74.6469 87.9327 74.6469 89.992C74.6469 92.0513 75.0525 94.0904 75.8406 95.9928C76.6287 97.8953 77.7838 99.624 79.24 101.08C79.6114 101.452 79.9059 101.893 80.1068 102.378C80.3077 102.864 80.411 103.384 80.4108 103.909C80.4106 104.435 80.307 104.955 80.1057 105.44C79.9045 105.926 79.6096 106.367 79.238 106.738C78.8664 107.109 78.4252 107.404 77.9397 107.605C77.4543 107.806 76.934 107.909 76.4086 107.909C75.8832 107.909 75.363 107.805 74.8776 107.604C74.3923 107.402 73.9514 107.108 73.58 106.736C69.1393 102.295 66.6446 96.2722 66.6446 89.992C66.6446 83.7118 69.1393 77.6888 73.58 73.248C73.9515 72.8761 74.3926 72.5811 74.8782 72.3798C75.3638 72.1785 75.8843 72.0749 76.41 72.0749C76.9357 72.0749 77.4562 72.1785 77.9418 72.3798C78.4273 72.5811 78.8685 72.8761 79.24 73.248ZM107.072 73.248C111.513 77.6888 114.007 83.7118 114.007 89.992C114.007 96.2722 111.513 102.295 107.072 106.736C106.318 107.465 105.307 107.868 104.258 107.859C103.21 107.85 102.206 107.429 101.465 106.687C100.723 105.946 100.302 104.942 100.293 103.894C100.284 102.845 100.687 101.834 101.416 101.08C102.872 99.624 104.027 97.8953 104.815 95.9928C105.604 94.0904 106.009 92.0513 106.009 89.992C106.009 87.9327 105.604 85.8936 104.815 83.9911C104.027 82.0887 102.872 80.36 101.416 78.904C100.687 78.1496 100.284 77.1392 100.293 76.0904C100.302 75.0416 100.723 74.0384 101.465 73.2967C102.206 72.5551 103.21 72.1344 104.258 72.1253C105.307 72.1162 106.318 72.5194 107.072 73.248ZM90.328 84.328C91.9193 84.328 93.4454 84.9601 94.5706 86.0854C95.6959 87.2106 96.328 88.7367 96.328 90.328C96.328 91.9193 95.6959 93.4454 94.5706 94.5706C93.4454 95.6959 91.9193 96.328 90.328 96.328C88.7367 96.328 87.2106 95.6959 86.0854 94.5706C84.9601 93.4454 84.328 91.9193 84.328 90.328C84.328 88.7367 84.9601 87.2106 86.0854 86.0854C87.2106 84.9601 88.7367 84.328 90.328 84.328Z" fill="#F2F2F2"/>
</svg>
