<svg width="180" height="180" viewBox="0 0 180 180" fill="none" xmlns="http://www.w3.org/2000/svg">
<circle cx="90" cy="90" r="90" fill="#73212F"/>
<path d="M58 58C55.8783 58 53.8434 58.8429 52.3431 60.3431C50.8429 61.8434 50 63.8783 50 66V114C50 116.122 50.8429 118.157 52.3431 119.657C53.8434 121.157 55.8783 122 58 122H106C108.122 122 110.157 121.157 111.657 119.657C113.157 118.157 114 116.122 114 114V105.16L122.376 110.32C123.133 110.787 124.001 111.043 124.89 111.063C125.779 111.082 126.657 110.864 127.434 110.432C128.21 109.999 128.858 109.367 129.309 108.6C129.76 107.834 129.999 106.961 130 106.072V73.936C130.001 73.0457 129.764 72.1714 129.313 71.4034C128.863 70.6354 128.216 70.0015 127.439 69.5673C126.662 69.133 125.783 68.9142 124.893 68.9333C124.003 68.9524 123.134 69.2088 122.376 69.676L114 74.84V66C114 63.8783 113.157 61.8434 111.657 60.3431C110.157 58.8429 108.122 58 106 58H58Z" fill="#F2F2F2"/>
</svg>
