<svg width="180" height="180" viewBox="0 0 180 180" fill="none" xmlns="http://www.w3.org/2000/svg">
<circle cx="90" cy="90" r="90" fill="#73212F"/>
<path d="M114 86H66V66H114M108 110C106.409 110 104.883 109.368 103.757 108.243C102.632 107.117 102 105.591 102 104C102 102.409 102.632 100.883 103.757 99.7574C104.883 98.6321 106.409 98 108 98C109.591 98 111.117 98.6321 112.243 99.7574C113.368 100.883 114 102.409 114 104C114 105.591 113.368 107.117 112.243 108.243C111.117 109.368 109.591 110 108 110ZM72 110C70.4087 110 68.8826 109.368 67.7574 108.243C66.6321 107.117 66 105.591 66 104C66 102.409 66.6321 100.883 67.7574 99.7574C68.8826 98.6321 70.4087 98 72 98C73.5913 98 75.1174 98.6321 76.2426 99.7574C77.3679 100.883 78 102.409 78 104C78 105.591 77.3679 107.117 76.2426 108.243C75.1174 109.368 73.5913 110 72 110ZM58 106C58 109.52 59.56 112.68 62 114.88V122C62 123.061 62.4214 124.078 63.1716 124.828C63.9217 125.579 64.9391 126 66 126H70C71.0609 126 72.0783 125.579 72.8284 124.828C73.5786 124.078 74 123.061 74 122V118H106V122C106 123.061 106.421 124.078 107.172 124.828C107.922 125.579 108.939 126 110 126H114C115.061 126 116.078 125.579 116.828 124.828C117.579 124.078 118 123.061 118 122V114.88C120.44 112.68 122 109.52 122 106V66C122 52 107.68 50 90 50C72.32 50 58 52 58 66V106Z" fill="#F2F2F2"/>
</svg>
