<svg width="180" height="180" viewBox="0 0 180 180" fill="none" xmlns="http://www.w3.org/2000/svg">
<circle cx="90" cy="90" r="90" fill="#0D0D0D"/>
<path fill-rule="evenodd" clip-rule="evenodd" d="M117.72 65C119.56 64.9997 121.376 65.4227 123.027 66.2363C124.678 67.0499 126.119 68.2323 127.24 69.692L127.704 70.344L131.984 76.764C133.132 78.4848 133.815 80.4732 133.968 82.536L134 83.424V109C134.001 111.018 133.238 112.962 131.866 114.442C130.494 115.922 128.613 116.829 126.6 116.98L126 117H125.32C124.514 119.281 123.037 121.265 121.083 122.692C119.129 124.12 116.79 124.923 114.371 124.997C111.953 125.072 109.569 124.414 107.531 123.109C105.493 121.805 103.897 119.915 102.952 117.688L102.68 117H77.316C76.5089 119.28 75.0319 121.263 73.0786 122.689C71.1252 124.115 68.7867 124.918 66.3693 124.992C63.9519 125.067 61.5684 124.409 59.5311 123.106C57.4938 121.802 55.8977 119.914 54.952 117.688L54.68 117H54C51.9817 117.001 50.0377 116.238 48.5578 114.866C47.0779 113.494 46.1714 111.613 46.02 109.6L46 109V77C45.9998 73.9392 47.1693 70.9939 49.2691 68.767C51.369 66.54 54.2404 65.1996 57.296 65.02L58 65H117.72ZM114 109C112.939 109 111.922 109.421 111.172 110.172C110.421 110.922 110 111.939 110 113C110 114.061 110.421 115.078 111.172 115.828C111.922 116.579 112.939 117 114 117C115.061 117 116.078 116.579 116.828 115.828C117.579 115.078 118 114.061 118 113C118 111.939 117.579 110.922 116.828 110.172C116.078 109.421 115.061 109 114 109ZM66 109C64.9391 109 63.9217 109.421 63.1716 110.172C62.4214 110.922 62 111.939 62 113C62 114.061 62.4214 115.078 63.1716 115.828C63.9217 116.579 64.9391 117 66 117C67.0609 117 68.0783 116.579 68.8284 115.828C69.5786 115.078 70 114.061 70 113C70 111.939 69.5786 110.922 68.8284 110.172C68.0783 109.421 67.0609 109 66 109ZM117.72 73H114V89H126V83.424C126 82.6339 125.766 81.8614 125.328 81.204L121.048 74.78C120.683 74.2323 120.188 73.7833 119.607 73.4728C119.027 73.1623 118.378 72.9999 117.72 73ZM66 73H58C57.0203 73.0001 56.0747 73.3598 55.3425 74.0109C54.6104 74.6619 54.1426 75.559 54.028 76.532L54 77V85H66V73ZM86 73H74V85H86V73ZM106 73H94V85H106V73Z" fill="#F2F2F2"/>
</svg>
