<svg width="180" height="180" viewBox="0 0 180 180" fill="none" xmlns="http://www.w3.org/2000/svg">
<circle cx="90" cy="90" r="90" fill="#73212F"/>
<path d="M62 84L68 66H112L118 84M112 104C110.409 104 108.883 103.368 107.757 102.243C106.632 101.117 106 99.5913 106 98C106 96.4087 106.632 94.8826 107.757 93.7574C108.883 92.6321 110.409 92 112 92C113.591 92 115.117 92.6321 116.243 93.7574C117.368 94.8826 118 96.4087 118 98C118 99.5913 117.368 101.117 116.243 102.243C115.117 103.368 113.591 104 112 104ZM68 104C66.4087 104 64.8826 103.368 63.7574 102.243C62.6321 101.117 62 99.5913 62 98C62 96.4087 62.6321 94.8826 63.7574 93.7574C64.8826 92.6321 66.4087 92 68 92C69.5913 92 71.1174 92.6321 72.2426 93.7574C73.3679 94.8826 74 96.4087 74 98C74 99.5913 73.3679 101.117 72.2426 102.243C71.1174 103.368 69.5913 104 68 104ZM117.68 64C116.88 61.68 114.64 60 112 60H68C65.36 60 63.12 61.68 62.32 64L54 88V120C54 121.061 54.4214 122.078 55.1716 122.828C55.9217 123.579 56.9391 124 58 124H62C63.0609 124 64.0783 123.579 64.8284 122.828C65.5786 122.078 66 121.061 66 120V116H114V120C114 121.061 114.421 122.078 115.172 122.828C115.922 123.579 116.939 124 118 124H122C123.061 124 124.078 123.579 124.828 122.828C125.579 122.078 126 121.061 126 120V88L117.68 64Z" fill="#F2F2F2"/>
</svg>
