<svg width="180" height="180" viewBox="0 0 180 180" fill="none" xmlns="http://www.w3.org/2000/svg">
<circle cx="90" cy="90" r="90" fill="#0D0D0D"/>
<g filter="url(#filter0_d_12_24)">
<path d="M98 62C99.0354 62 100.031 62.4014 100.776 63.12L101.124 63.5L115.92 82H118C121.061 81.9998 124.006 83.1693 126.233 85.2691C128.46 87.369 129.8 90.2404 129.98 93.296L130 94V110C130 111.061 129.579 112.078 128.828 112.828C128.078 113.579 127.061 114 126 114H121.316C120.488 116.339 118.955 118.365 116.929 119.797C114.902 121.229 112.482 121.998 110 121.998C107.518 121.998 105.098 121.229 103.071 119.797C101.045 118.365 99.5121 116.339 98.684 114H81.316C80.4879 116.339 78.9552 118.365 76.9287 119.797C74.9022 121.229 72.4816 121.998 70 121.998C67.5184 121.998 65.0978 121.229 63.0713 119.797C61.0448 118.365 59.5121 116.339 58.684 114H54C52.9391 114 51.9217 113.579 51.1716 112.828C50.4214 112.078 50 111.061 50 110V86L50.028 85.532L50.06 85.308L50.128 84.996L50.176 84.852L50.232 84.652L58.288 64.516C58.5845 63.7738 59.0966 63.1374 59.7583 62.6889C60.4199 62.2405 61.2007 62.0005 62 62H98ZM70 106C68.9391 106 67.9217 106.421 67.1716 107.172C66.4214 107.922 66 108.939 66 110C66 111.061 66.4214 112.078 67.1716 112.828C67.9217 113.579 68.9391 114 70 114C71.0609 114 72.0783 113.579 72.8284 112.828C73.5786 112.078 74 111.061 74 110C74 108.939 73.5786 107.922 72.8284 107.172C72.0783 106.421 71.0609 106 70 106ZM110 106C108.939 106 107.922 106.421 107.172 107.172C106.421 107.922 106 108.939 106 110C106 111.061 106.421 112.078 107.172 112.828C107.922 113.579 108.939 114 110 114C111.061 114 112.078 113.579 112.828 112.828C113.579 112.078 114 111.061 114 110C114 108.939 113.579 107.922 112.828 107.172C112.078 106.421 111.061 106 110 106ZM86 70H64.704L59.904 82H86V70ZM96.08 70H94V82H105.68L96.08 70Z" fill="#F2F2F2"/>
</g>
<defs>
<filter id="filter0_d_12_24" x="38" y="42" width="104" height="104" filterUnits="userSpaceOnUse" color-interpolation-filters="sRGB">
<feFlood flood-opacity="0" result="BackgroundImageFix"/>
<feColorMatrix in="SourceAlpha" type="matrix" values="0 0 0 0 0 0 0 0 0 0 0 0 0 0 0 0 0 0 127 0" result="hardAlpha"/>
<feOffset dy="4"/>
<feGaussianBlur stdDeviation="2"/>
<feComposite in2="hardAlpha" operator="out"/>
<feColorMatrix type="matrix" values="0 0 0 0 0 0 0 0 0 0 0 0 0 0 0 0 0 0 0.25 0"/>
<feBlend mode="normal" in2="BackgroundImageFix" result="effect1_dropShadow_12_24"/>
<feBlend mode="normal" in="SourceGraphic" in2="effect1_dropShadow_12_24" result="shape"/>
</filter>
</defs>
</svg>
