<svg width="180" height="180" viewBox="0 0 180 180" fill="none" xmlns="http://www.w3.org/2000/svg">
<circle cx="90" cy="90" r="90" fill="#73212F"/>
<path d="M86 50C93.7707 49.9988 101.276 52.8252 107.116 57.9518C112.956 63.0783 116.731 70.1546 117.736 77.86L126.736 92.016C127.328 92.948 127.208 94.336 125.836 94.928L118 98.28V110C118 112.122 117.157 114.157 115.657 115.657C114.157 117.157 112.122 118 110 118H102.004L102 130H66V115.224C66 110.504 64.256 106.036 61.02 102.004C57.2508 97.2978 54.8879 91.6225 54.2036 85.632C53.5192 79.6414 54.5413 73.5794 57.152 68.1445C59.7626 62.7095 63.8557 58.1226 68.9596 54.9125C74.0635 51.7023 79.9705 49.9994 86 50ZM86 70C84.9391 70 83.9217 70.4214 83.1716 71.1716C82.4214 71.9217 82 72.9391 82 74V77.996L78 78C76.9391 78 75.9217 78.4214 75.1716 79.1716C74.4214 79.9217 74 80.9391 74 82C74 83.0609 74.4214 84.0783 75.1716 84.8284C75.9217 85.5786 76.9391 86 78 86L82 85.996V90C82 91.0609 82.4214 92.0783 83.1716 92.8284C83.9217 93.5786 84.9391 94 86 94C87.0609 94 88.0783 93.5786 88.8284 92.8284C89.5786 92.0783 90 91.0609 90 90V86H94C95.0609 86 96.0783 85.5786 96.8284 84.8284C97.5786 84.0783 98 83.0609 98 82C98 80.9391 97.5786 79.9217 96.8284 79.1716C96.0783 78.4214 95.0609 78 94 78H90V74C90 72.9391 89.5786 71.9217 88.8284 71.1716C88.0783 70.4214 87.0609 70 86 70Z" fill="#F2F2F2"/>
</svg>
