<svg width="180" height="180" viewBox="0 0 180 180" fill="none" xmlns="http://www.w3.org/2000/svg">
<circle cx="90" cy="90" r="90" fill="#0D0D0D"/>
<path fill-rule="evenodd" clip-rule="evenodd" d="M92.372 137.032L92.328 137.04L92.044 137.18L91.964 137.196L91.908 137.18L91.624 137.04C91.5813 137.027 91.5493 137.033 91.528 137.06L91.512 137.1L91.444 138.812L91.464 138.892L91.504 138.944L91.92 139.24L91.98 139.256L92.028 139.24L92.444 138.944L92.492 138.88L92.508 138.812L92.44 137.104C92.4293 137.061 92.4067 137.037 92.372 137.032ZM93.432 136.58L93.38 136.588L92.64 136.96L92.6 137L92.588 137.044L92.66 138.764L92.68 138.812L92.712 138.84L93.516 139.212C93.5667 139.225 93.6053 139.215 93.632 139.18L93.648 139.124L93.512 136.668C93.4987 136.62 93.472 136.591 93.432 136.58ZM90.572 136.588C90.5544 136.577 90.5333 136.574 90.5132 136.578C90.4931 136.583 90.4755 136.595 90.464 136.612L90.44 136.668L90.304 139.124C90.3067 139.172 90.3294 139.204 90.372 139.22L90.432 139.212L91.236 138.84L91.276 138.808L91.292 138.764L91.36 137.044L91.348 136.996L91.308 136.956L90.572 136.588Z" fill="#F2F2F2"/>
<path fill-rule="evenodd" clip-rule="evenodd" d="M62 80C62 72.5739 64.95 65.452 70.201 60.201C75.452 54.95 82.5739 52 90 52C97.4261 52 104.548 54.95 109.799 60.201C115.05 65.452 118 72.5739 118 80V84.14C124.784 85.112 130 90.948 130 98V99C129.999 100.734 129.652 102.451 128.978 104.049C128.303 105.647 127.316 107.094 126.074 108.305C124.832 109.516 123.361 110.466 121.746 111.099C120.131 111.732 118.406 112.036 116.672 111.992C113.712 120.472 106.184 126.188 98.06 127.636C96.18 128.324 93.956 128 92 128C90.4087 128 88.8826 127.368 87.7574 126.243C86.6321 125.117 86 123.591 86 122C86 120.409 86.6321 118.883 87.7574 117.757C88.8826 116.632 90.4087 116 92 116H96C96.9393 116 97.8654 116.22 98.704 116.643C99.5426 117.066 100.27 117.68 100.828 118.436C106.012 115.968 110 110.756 110 104V80C110 74.6957 107.893 69.6086 104.142 65.8579C100.391 62.1071 95.3043 60 90 60C84.6957 60 79.6086 62.1071 75.8579 65.8579C72.1071 69.6086 70 74.6957 70 80V105C70 106.857 69.2625 108.637 67.9497 109.95C66.637 111.263 64.8565 112 63 112C59.5522 112 56.2456 110.63 53.8076 108.192C51.3696 105.754 50 102.448 50 99V98C49.9991 94.6329 51.2118 91.3782 53.4158 88.8326C55.6198 86.287 58.6674 84.621 62 84.14V80ZM62 92.34C60.8297 92.7538 59.8165 93.5203 59.1001 94.534C58.3837 95.5477 57.9993 96.7587 58 98V99C58 101.42 59.72 103.44 62 103.9V92.34ZM118 92.34V103.9C120.28 103.436 122 101.42 122 99V98C122.001 96.7587 121.616 95.5477 120.9 94.534C120.183 93.5203 119.17 92.7538 118 92.34Z" fill="#F2F2F2"/>
</svg>
