<svg width="180" height="180" viewBox="0 0 180 180" fill="none" xmlns="http://www.w3.org/2000/svg">
<circle cx="90" cy="90" r="90" fill="#73212F"/>
<path d="M80 126C77.144 126 74.764 125.048 72.86 123.144C70.9533 121.235 70 118.853 70 116C70 114.784 69.9427 113.765 69.828 112.944C69.7133 112.123 69.4267 111.485 68.968 111.032C68.5147 110.573 67.8773 110.261 67.056 110.096C66.2347 109.931 65.216 109.847 64 109.844C61.144 109.844 58.764 108.917 56.86 107.064C54.9533 105.211 54 102.856 54 100C54 97.144 54.9533 94.764 56.86 92.86C58.7667 90.956 61.1467 90.0027 64 90C65.072 90 66.088 90.136 67.048 90.408C68.008 90.68 68.8227 91.088 69.492 91.632C70.212 92.1947 71.0453 92.476 71.992 92.476C72.9387 92.476 73.7467 92.1427 74.416 91.476L91.168 74.724C91.8347 74.0573 92.22 73.2107 92.324 72.184C92.428 71.1573 92.1973 70.26 91.632 69.492C91.1387 68.7693 90.7427 67.9413 90.444 67.008C90.1453 66.0747 89.9973 65.072 90 64C90 61.144 90.9533 58.764 92.86 56.86C94.764 54.9533 97.144 54 100 54C102.856 54 105.237 54.9533 107.144 56.86C109.051 58.7667 110.003 61.1467 110 64C110 65.216 110.057 66.2347 110.172 67.056C110.287 67.8773 110.573 68.5147 111.032 68.968C111.485 69.4267 112.124 69.7133 112.948 69.828C113.772 69.9427 114.789 70 116 70C118.856 70 121.237 70.9533 123.144 72.86C125.048 74.764 126 77.144 126 80C126 82.856 125.048 85.2373 123.144 87.144C121.24 89.0507 118.859 90.0027 116 90C114.928 90 113.925 89.852 112.992 89.556C112.059 89.26 111.231 88.864 110.508 88.368C109.74 87.856 108.868 87.6387 107.892 87.716C106.919 87.7933 106.099 88.1653 105.432 88.832L88.832 105.432C88.1653 106.099 87.78 106.88 87.676 107.776C87.572 108.672 87.752 109.532 88.216 110.356C88.656 111.076 89.064 111.929 89.44 112.916C89.8133 113.9 90 114.928 90 116C90 118.856 89.048 121.237 87.144 123.144C85.2347 125.048 82.8533 126 80 126Z" fill="#F2F2F2"/>
</svg>
